<?xml version="1.0" encoding="utf-8"?>
<!-- Generator: Adobe Illustrator 19.0.0, SVG Export Plug-In . SVG Version: 6.00 Build 0)  -->
<svg version="1.1" id="Layer_1" xmlns="http://www.w3.org/2000/svg" xmlns:xlink="http://www.w3.org/1999/xlink" x="0px" y="0px"
	 viewBox="-50 217.2 510.1 359.8" style="enable-background:new -50 217.2 510.1 359.8;" xml:space="preserve">
<style type="text/css">
	.st0{opacity:0.24;fill:#4FAD32;enable-background:new    ;}
	.st1{fill:#4FAD32;}
	.st2{opacity:0.5;fill:url(#SVGID_1_);enable-background:new    ;}
	.st3{opacity:0.5;fill:url(#SVGID_2_);enable-background:new    ;}
	.st4{fill:#FFFFFF;}
	.st5{opacity:0.5;fill:url(#SVGID_3_);enable-background:new    ;}
	.st6{opacity:0.5;fill:url(#SVGID_4_);enable-background:new    ;}
	.st7{opacity:0.5;fill:url(#SVGID_5_);enable-background:new    ;}
	.st8{opacity:0.5;fill:url(#SVGID_6_);enable-background:new    ;}
	.st9{opacity:0.5;fill:url(#SVGID_7_);enable-background:new    ;}
	.st10{opacity:0.5;fill:url(#SVGID_8_);enable-background:new    ;}
	.st11{fill:url(#SVGID_9_);}
	.st12{fill:url(#SVGID_10_);}
	.st13{fill:url(#SVGID_11_);}
	.st14{fill:url(#SVGID_12_);}
	.st15{fill:#626161;}
	.st16{fill:url(#SVGID_13_);}
	.st17{opacity:0.5;fill:url(#SVGID_14_);enable-background:new    ;}
	.st18{opacity:0.5;fill:url(#SVGID_15_);enable-background:new    ;}
	.st19{opacity:0.5;fill:url(#SVGID_16_);enable-background:new    ;}
	.st20{fill:url(#SVGID_17_);}
	.st21{fill:url(#SVGID_18_);}
	.st22{fill:url(#SVGID_19_);}
	.st23{fill:none;stroke:#FFFFFF;stroke-width:1.1;stroke-linecap:round;stroke-miterlimit:10;}
	.st24{fill:url(#SVGID_20_);}
	.st25{fill:url(#SVGID_21_);}
	.st26{fill:url(#SVGID_22_);}
	.st27{fill:url(#SVGID_23_);}
	.st28{fill:url(#SVGID_24_);}
	.st29{fill:url(#SVGID_25_);}
	.st30{opacity:0.5;fill:url(#SVGID_26_);enable-background:new    ;}
</style>
<title>Under Constructions 2</title>
<path class="st0" d="M399.5,558.2c-39.8,20.5-85.8,19.5-129.9,18.1l-153-4.8c-14.9-0.5-29.9-0.9-44.7-2.9
	c-8.6-1.1-17.2-2.8-25.6-5.2c-3.2-0.9-6.4-2-9.5-3.1c-1.6-0.6-3.2-1.2-4.8-1.9c-9-3.8-17.5-8.6-25.4-14.3
	c-20.9-15.2-37.3-35.7-47.4-59.5c-8.9-20.9-12.9-45.4-5.2-66.9c14.3-39.7,59.3-52,94.5-71.4c33.2-18.2,61.1-47,80-81.6
	c21.8-39.9,23.9-50.1,71.4-47.2c44.8,2.8,92.5,6.6,128.7,35.2c20.7,16.3,35.7,39.3,50.4,61.9c19.1,29.4,38.2,58.8,57.2,88.1
	c8.3,12.7,16.6,25.7,20.9,40.5C470.1,488.7,439.4,537.8,399.5,558.2z"/>
<ellipse class="st0" cx="241.5" cy="553.1" rx="156.5" ry="13.6"/>
<polygon class="st1" points="31.2,282.6 51.4,274.3 162.3,284.7 162.3,295.3 31.2,295.6 "/>
<rect x="48.1" y="271" class="st1" width="19.8" height="275.8"/>
<path class="st1" d="M387.9,405.4c0,0,12.8,6.6,13,11.6s3.3,26.5,3.3,26.5l-8.7,3.7l1.2,17.6c0.2,2.2-1.5,4.1-3.7,4.3
	c-8.1,0.8-30.1-2-29.8-4.5c2.8-30-1.3-52,4-55.1s12.6-4.1,12.6-4.1L387.9,405.4z"/>
<linearGradient id="SVGID_1_" gradientUnits="userSpaceOnUse" x1="379.3591" y1="354.2099" x2="382.7691" y2="305.2999" gradientTransform="matrix(1 0 0 -1 0 796.48)">
	<stop  offset="0" style="stop-color:#010101;stop-opacity:0"/>
	<stop  offset="0.95" style="stop-color:#010101"/>
</linearGradient>
<polygon class="st2" points="395.6,447.2 383.6,448.8 382,446.8 364,448.8 364.2,450.5 382.2,451.3 386.1,454.7 395.9,453.6 "/>
<path class="st1" d="M351.4,328.9v176.6c0,4.7-3.8,8.6-8.6,8.6c0,0,0,0,0,0H112.4c-4.4,0.1-8-3.3-8.1-7.7c0-0.4,0-0.9,0.1-1.3V328.5
	c-0.6-4.4,3.2-8.2,8-8.2h230.4C347.5,320.3,351.3,324.1,351.4,328.9C351.4,328.9,351.4,328.9,351.4,328.9z"/>
<linearGradient id="SVGID_2_" gradientUnits="userSpaceOnUse" x1="163.3085" y1="298.3906" x2="167.1285" y2="244.1606" gradientTransform="matrix(1 0 0 -1 0 796.48)">
	<stop  offset="0" style="stop-color:#010101;stop-opacity:0"/>
	<stop  offset="0.95" style="stop-color:#010101"/>
</linearGradient>
<rect x="111.9" y="505.1" class="st3" width="104.5" height="9"/>
<rect x="193.2" y="504.3" class="st4" width="9.9" height="69.6"/>
<rect x="122.6" y="504.3" class="st4" width="9.9" height="67.2"/>
<linearGradient id="SVGID_3_" gradientUnits="userSpaceOnUse" x1="110.7608" y1="269.2557" x2="213.8608" y2="289.5957" gradientTransform="matrix(1 0 0 -1 0 796.48)">
	<stop  offset="0" style="stop-color:#010101;stop-opacity:0"/>
	<stop  offset="0.35" style="stop-color:#010101;stop-opacity:0.35"/>
	<stop  offset="0.95" style="stop-color:#010101"/>
</linearGradient>
<polygon class="st5" points="122.7,541 132.6,541 132.6,506.9 122.4,506.9 "/>
<linearGradient id="SVGID_4_" gradientUnits="userSpaceOnUse" x1="181.5208" y1="269.2557" x2="284.6208" y2="289.5957" gradientTransform="matrix(1 0 0 -1 0 796.48)">
	<stop  offset="0" style="stop-color:#010101;stop-opacity:0"/>
	<stop  offset="0.35" style="stop-color:#010101;stop-opacity:0.35"/>
	<stop  offset="0.95" style="stop-color:#010101"/>
</linearGradient>
<polygon class="st6" points="193.4,541 203.4,541 203.4,506.9 193.2,506.9 "/>
<linearGradient id="SVGID_5_" gradientUnits="userSpaceOnUse" x1="191.94" y1="382.0205" x2="902.31" y2="418.9605" gradientTransform="matrix(1 0 0 -1 0 796.48)">
	<stop  offset="0" style="stop-color:#010101;stop-opacity:0"/>
	<stop  offset="0.95" style="stop-color:#010101"/>
</linearGradient>
<rect x="251.1" y="347" class="st7" width="87" height="124.2"/>
<linearGradient id="SVGID_6_" gradientUnits="userSpaceOnUse" x1="151.2089" y1="383.6512" x2="244.3837" y2="388.5014" gradientTransform="matrix(1 0 0 -1 0 796.48)">
	<stop  offset="0" style="stop-color:#010101;stop-opacity:0"/>
	<stop  offset="0.95" style="stop-color:#010101"/>
</linearGradient>
<polygon class="st8" points="241.2,347 241.2,471.3 154.3,471.3 154.3,462.5 203.3,462.5 203.3,347 "/>
<linearGradient id="SVGID_7_" gradientUnits="userSpaceOnUse" x1="90.1807" y1="379.5671" x2="512.5406" y2="479.5671" gradientTransform="matrix(1 0 0 -1 0 796.48)">
	<stop  offset="0" style="stop-color:#010101;stop-opacity:0"/>
	<stop  offset="0.95" style="stop-color:#010101"/>
</linearGradient>
<rect x="116.4" y="338.3" class="st9" width="87" height="124.2"/>
<linearGradient id="SVGID_8_" gradientUnits="userSpaceOnUse" x1="92.9716" y1="380.6233" x2="513.4716" y2="480.1833" gradientTransform="matrix(1 0 0 -1 0 796.48)">
	<stop  offset="0" style="stop-color:#010101;stop-opacity:0"/>
	<stop  offset="0.95" style="stop-color:#010101"/>
</linearGradient>
<rect x="118.9" y="338.4" class="st10" width="87" height="122"/>
<linearGradient id="SVGID_9_" gradientUnits="userSpaceOnUse" x1="310.8729" y1="361.4147" x2="465.3229" y2="225.8747" gradientTransform="matrix(1 0 0 -1 -1.64 749.77)">
	<stop  offset="0" style="stop-color:#010101;stop-opacity:0"/>
	<stop  offset="0.95" style="stop-color:#010101"/>
</linearGradient>
<path class="st11" d="M301.9,394c0,0-1.6-0.1-1.1,0.9s3.7,1.5,3.6,2c-1.4,8.8,6.2,10,9.5,9.2s37.2,18.8,37.2,18.8l0.3-17.8
	L301.9,394z"/>
<linearGradient id="SVGID_10_" gradientUnits="userSpaceOnUse" x1="303.2858" y1="351.8409" x2="318.985" y2="351.8409" gradientTransform="matrix(1 0 0 -1 -1.64 749.77)">
	<stop  offset="0" style="stop-color:#CECECE"/>
	<stop  offset="0.42" style="stop-color:#DED8D0"/>
	<stop  offset="1" style="stop-color:#EFE8E1"/>
</linearGradient>
<path class="st12" d="M312.2,394.8c-3.3-0.7-6.6-1.5-9.9-1.9c-0.1,0-0.3,0-0.5,0c-0.4,0.2-0.2,0.8,0.1,1.1c1,1.1,2.5,1.3,3.9,1.8
	c0.1,0,0.2,0.1,0.3,0.2c0,0.1,0,0.2,0,0.3c-0.4,1-0.5,2.2-0.3,3.3c0.2,1.1,0.8,2.1,1.8,2.7c0.9,0.5,1.8,0.7,2.8,0.7
	c1.2,0.2,2.3,0.1,3.4-0.3c0.6-0.3,1.3-0.6,2-0.9c0.4-0.1,1-0.1,1.2-0.4c0.1-0.2,0.2-0.4,0.2-0.6c0.2-1.3,0.3-3.2-0.7-4.2
	C315.2,395.6,313.8,395,312.2,394.8z"/>
<linearGradient id="SVGID_11_" gradientUnits="userSpaceOnUse" x1="-43.4397" y1="408.6344" x2="1841.1503" y2="506.6444" gradientTransform="matrix(1 0 0 -1 -1.64 749.77)">
	<stop  offset="0" style="stop-color:#010101;stop-opacity:0"/>
	<stop  offset="0.95" style="stop-color:#010101"/>
</linearGradient>
<path class="st13" d="M351.4,328.9v4.2H103.7v-4.2c0-4.7,3.8-8.6,8.6-8.6c0,0,0,0,0,0h230.4C347.5,320.3,351.3,324.1,351.4,328.9
	C351.4,328.9,351.4,328.9,351.4,328.9z"/>
<linearGradient id="SVGID_12_" gradientUnits="userSpaceOnUse" x1="-747.6573" y1="352.661" x2="-728.41" y2="352.661" gradientTransform="matrix(-1 0 0 -1 -359.22 749.77)">
	<stop  offset="0" style="stop-color:#CECECE"/>
	<stop  offset="0.42" style="stop-color:#DED8D0"/>
	<stop  offset="1" style="stop-color:#EFE8E1"/>
</linearGradient>
<path class="st14" d="M369.6,390.3c-0.2,0.4-0.3,0.7-0.4,1.1c0.1,1,0.4,1.9,0.9,2.8c1,2.2,0.8,5.2,2.8,6.5c1.1,0.8,2.5,0.8,3.8,1.3
	c1.5,0.6,2.7,1.9,3.2,3.4c0.4,1.4-1.5,6.6-0.1,7.1c1.4,0.5,3.6-1,4.9-1.9c1.5-1.1,3-2,3.1-3.5c0.5-5.4,1-10.9,0.2-16.3
	c-0.2-1.6-0.7-3.2-1.4-4.7c-1.4-2.5-4-4.2-6.8-4.5C373.6,381,371.6,385.6,369.6,390.3z"/>
<path class="st15" d="M370.1,381.4c-0.3,1.3,0,2.6,0.9,3.6c1.7,1.8,4.8,1.6,6.4,3.4c0.6,0.7,1,1.5,1.2,2.4c0.2,0.6,0.6,1.2,1.1,1.1
	c0.8-0.1,0.7-1.4,1.4-1.8c0.6-0.3,1.4,0,1.7,0.6c0.7,1.3-0.1,2.9-1.3,3.8c-0.1,0.1-0.2,0.1-0.2,0.3c0,0.1,0.1,0.1,0.1,0.2l3.5,3.7
	c0.4,0.5,0.9,0.9,1.5,1.1c1.1,0.3,2.1-0.7,2.9-1.5l3.4-3.8c0.6-0.6,1.1-1.3,1.5-2.1c0.5-1.5,0.7-3,0.4-4.5c-0.1-1.6-0.4-3.2-1-4.7
	c-0.9-1.6-2.2-3-3.8-3.9c-4.7-2.9-10.5-3.3-15.9-3c-1.4,0.1-0.8,1.5-1.5,2.3C371.7,379.7,370.5,380,370.1,381.4z"/>
<linearGradient id="SVGID_13_" gradientUnits="userSpaceOnUse" x1="376.9043" y1="371.8125" x2="391.1716" y2="353.916" gradientTransform="matrix(1 0 0 -1 -1.64 749.77)">
	<stop  offset="0" style="stop-color:#010101;stop-opacity:0"/>
	<stop  offset="0.95" style="stop-color:#010101"/>
</linearGradient>
<path class="st16" d="M369.9,382.2c0.1,0.5,0.2,1,0.3,1.5c0.1,0.2,23.1,8.4,23.1,8.4s1,0.3,1.1-0.3c0.1-0.6,0.4-1.4,0.4-1.4
	L369.9,382.2z"/>
<path class="st1" d="M398.4,386c0,1.3-0.1,2.7-0.4,4c0,0-1.3,1-5,0.1c-3.7-1-27-9.2-27-9.2s-0.4-1.4,1-1.6l0,0
	c1.1-0.2,2.1-0.8,2.9-1.5c0,0,4.9-10.8,18.2-5.8C396.6,375.2,398.3,381.8,398.4,386z"/>
<linearGradient id="SVGID_14_" gradientUnits="userSpaceOnUse" x1="379.3239" y1="376.041" x2="414.7339" y2="331.631" gradientTransform="matrix(1 0 0 -1 -1.64 749.77)">
	<stop  offset="0" style="stop-color:#010101;stop-opacity:0"/>
	<stop  offset="0.95" style="stop-color:#010101"/>
</linearGradient>
<path class="st17" d="M398.4,386c-0.1,0.7-0.2,1.4-0.4,2.1c-0.9,0.5-1.9,0.6-2.9,0.4c-0.7-0.1-1.3-0.2-2-0.4
	c-2.2-0.6-11.5-3.8-18.6-6.3c-3.3-1.1-6-2.2-7.4-2.6c1.1-0.2,2.1-0.8,2.9-1.5c0,0,4.9-10.8,18.2-5.8
	C396.6,375.2,398.3,381.8,398.4,386z"/>
<linearGradient id="SVGID_15_" gradientUnits="userSpaceOnUse" x1="379.4705" y1="375.8383" x2="405.9205" y2="342.6683" gradientTransform="matrix(1 0 0 -1 -1.64 749.77)">
	<stop  offset="0" style="stop-color:#010101;stop-opacity:0"/>
	<stop  offset="0.95" style="stop-color:#010101"/>
</linearGradient>
<path class="st18" d="M395.1,388.5c-0.7-0.1-1.3-0.2-2-0.4c-2.2-0.6-11.5-3.8-18.6-6.3c0.1-0.1,0.1-0.1,0.1-0.2
	c0,0,3.6-10.8,13.1-5.8C393.3,378.9,394.8,384.4,395.1,388.5z"/>
<polygon class="st4" points="371.1,423.2 352.4,424.8 364,448.8 382.2,448.3 "/>
<linearGradient id="SVGID_16_" gradientUnits="userSpaceOnUse" x1="378.659" y1="364.8824" x2="308.059" y2="334.4524" gradientTransform="matrix(1 0 0 -1 0 796.48)">
	<stop  offset="0" style="stop-color:#010101;stop-opacity:0"/>
	<stop  offset="0.95" style="stop-color:#010101"/>
</linearGradient>
<polygon class="st19" points="370.6,423.9 352.4,424.8 364,448.8 382.2,448.3 "/>
<linearGradient id="SVGID_17_" gradientUnits="userSpaceOnUse" x1="-742.58" y1="306.8661" x2="-733.5916" y2="306.8661" gradientTransform="matrix(-1 0 0 -1 -359.22 749.77)">
	<stop  offset="0" style="stop-color:#CECECE"/>
	<stop  offset="0.42" style="stop-color:#DED8D0"/>
	<stop  offset="1" style="stop-color:#EFE8E1"/>
</linearGradient>
<path class="st20" d="M375.8,438.8c-0.4,0.1-0.9,0.2-1,0.6s0.5,0.8,1,0.9l1.8,0.5c-0.8-0.3-1.7-0.4-2.6-0.3c-0.3,0-0.6,0.2-0.6,0.4
	s0.4,0.6,0.8,0.7l2.4,0.4c-0.8-0.2-1.6-0.1-2.4,0.3c-0.1,0-0.2,0.1-0.3,0.2c-0.1,0.3,0.3,0.5,0.6,0.6c0.9,0.2,1.7,0.4,2.6,0.5h-1.7
	c-0.2,0-0.4,0-0.6,0.1c-0.2,0.3-0.2,0.6,0.1,0.8c0,0,0,0,0.1,0c0.3,0.2,0.7,0.2,1,0.2h1.4c0.3,0,0.6,0,0.8,0.1
	c0.8,0.3,1,1.4,1.8,1.8c0.7,0.3,1.5,0,1.9-0.6c0.4-0.7,0.5-1.4,0.3-2.2c-0.3-1.7-1.3-3.1-2.8-4C378.8,439.2,377.9,438.5,375.8,438.8
	z"/>
<polygon class="st1" points="396.1,467.3 390.2,508.3 397.3,555.8 392.7,556.4 378.7,511.7 376.8,490.6 360.7,554.3 356.6,554.3 
	364.4,465.2 "/>
<linearGradient id="SVGID_18_" gradientUnits="userSpaceOnUse" x1="376.3579" y1="251.1903" x2="394.1579" y2="388.6602" gradientTransform="matrix(1 0 0 -1 0 796.48)">
	<stop  offset="0" style="stop-color:#010101;stop-opacity:0"/>
	<stop  offset="0.95" style="stop-color:#010101"/>
</linearGradient>
<polygon class="st21" points="396.1,467.3 390.2,508.3 397.3,555.8 392.7,556.4 378.7,511.7 376.8,490.6 360.7,554.3 356.6,554.3 
	360.6,508.5 364.4,465.2 "/>
<path class="st15" d="M398.5,560.3c0,0.1,0.1,0.3,0,0.4c-0.1,0.1-0.2,0.1-0.3,0.1c-3.5,0.3-7,0.3-10.4,0c0.3-1.1,0.8-2.1,1.6-2.9
	c0.4-0.4,0.9-0.6,1.4-0.9c1.4-0.6,4.4-1.8,5.9-1.2C397.9,556.3,398.2,559.1,398.5,560.3z"/>
<path class="st15" d="M360.6,559.6c0,0.1,0,0.2-0.1,0.3c-0.1,0.1-0.2,0.1-0.3,0.1c-3.2,0.2-6.5,0.2-9.7,0c-0.1,0-0.2,0-0.3-0.1
	c-0.2-0.1-0.1-0.4,0-0.6c1-1.8,2.5-3.3,4.4-4.3c1.2-0.6,4.2-1.7,5.4-0.8C361.2,555.1,360.8,558.2,360.6,559.6z"/>
<path class="st1" d="M340.1,400.1l38.2,5.6l-13.5,15.9l0,0c-1.7-3.3-4.7-5.7-8.3-6.7l-40.3-11.3l0.3-7.5L340.1,400.1z"/>
<linearGradient id="SVGID_19_" gradientUnits="userSpaceOnUse" x1="82" y1="501.1" x2="82" y2="501.1" gradientTransform="matrix(1 0 0 -1 -1.64 749.77)">
	<stop  offset="0" style="stop-color:#010101;stop-opacity:0"/>
	<stop  offset="0.95" style="stop-color:#010101"/>
</linearGradient>
<path class="st22" d="M80.4,248.7"/>
<rect x="157.3" y="295.1" class="st4" width="1.4" height="35.8"/>
<path class="st23" d="M116.4,338.3c0,0,35.7-17.8,87,0"/>
<linearGradient id="SVGID_20_" gradientUnits="userSpaceOnUse" x1="55.9594" y1="497.5827" x2="407.7094" y2="580.8727" gradientTransform="matrix(1 0 0 -1 0 796.48)">
	<stop  offset="0" style="stop-color:#010101;stop-opacity:0"/>
	<stop  offset="0.95" style="stop-color:#010101"/>
</linearGradient>
<polygon class="st24" points="162.3,284.7 162.3,295.3 67.9,295.3 67.9,274.5 "/>
<linearGradient id="SVGID_21_" gradientUnits="userSpaceOnUse" x1="56.6201" y1="495.4096" x2="404.3701" y2="577.7496" gradientTransform="matrix(1 0 0 -1 0 796.48)">
	<stop  offset="0" style="stop-color:#010101;stop-opacity:0"/>
	<stop  offset="0.95" style="stop-color:#010101"/>
</linearGradient>
<polygon class="st25" points="162.3,289.4 162.3,295.3 67.9,295.3 67.9,279.2 "/>
<linearGradient id="SVGID_22_" gradientUnits="userSpaceOnUse" x1="57.8994" y1="418.13" x2="58.7294" y2="82.7299" gradientTransform="matrix(1 0 0 -1 0 796.48)">
	<stop  offset="0" style="stop-color:#010101;stop-opacity:0"/>
	<stop  offset="0.95" style="stop-color:#010101"/>
</linearGradient>
<rect x="48.1" y="271" class="st26" width="19.8" height="275.8"/>
<linearGradient id="SVGID_23_" gradientUnits="userSpaceOnUse" x1="58.0995" y1="543.33" x2="58.9295" y2="207.95" gradientTransform="matrix(1 0 0 -1 0 796.48)">
	<stop  offset="0" style="stop-color:#010101;stop-opacity:0"/>
	<stop  offset="0.95" style="stop-color:#010101"/>
</linearGradient>
<rect x="53" y="271" class="st27" width="11" height="275.8"/>
<linearGradient id="SVGID_24_" gradientUnits="userSpaceOnUse" x1="27.2195" y1="505.8023" x2="105.2595" y2="524.2823" gradientTransform="matrix(1 0 0 -1 0 796.48)">
	<stop  offset="0" style="stop-color:#010101;stop-opacity:0"/>
	<stop  offset="0.95" style="stop-color:#010101"/>
</linearGradient>
<polygon class="st28" points="48.1,275.8 48.1,295.6 31.2,295.6 31.2,282.6 "/>
<linearGradient id="SVGID_25_" gradientUnits="userSpaceOnUse" x1="27.7101" y1="504.2095" x2="102.8101" y2="521.9895" gradientTransform="matrix(1 0 0 -1 0 796.48)">
	<stop  offset="0" style="stop-color:#010101;stop-opacity:0"/>
	<stop  offset="0.95" style="stop-color:#010101"/>
</linearGradient>
<polygon class="st29" points="48.1,279.3 48.1,295.6 31.2,295.6 31.2,286 "/>
<path class="st1" d="M127.4,346.2h51.2c1.2,0,2.2,1,2.2,2.2v0c0,1.2-1,2.2-2.2,2.2h-51.2c-1.2,0-2.2-1-2.2-2.2v0
	C125.3,347.2,126.2,346.2,127.4,346.2z"/>
<path class="st1" d="M126.5,354h28.4c0.7,0,1.2,0.5,1.2,1.2v0c0,0.7-0.5,1.2-1.2,1.2h-28.4c-0.7,0-1.2-0.5-1.2-1.2v0
	C125.3,354.6,125.8,354,126.5,354z"/>
<path class="st1" d="M139.3,360h28.4c0.7,0,1.2,0.5,1.2,1.2l0,0c0,0.7-0.5,1.2-1.2,1.2h-28.4c-0.7,0-1.2-0.5-1.2-1.2l0,0
	C138.1,360.6,138.6,360,139.3,360z"/>
<path class="st1" d="M160.2,354h2.1c0.7,0,1.2,0.5,1.2,1.2v0c0,0.7-0.5,1.2-1.2,1.2h-2.1c-0.7,0-1.2-0.5-1.2-1.2v0
	C159,354.5,159.5,354,160.2,354z"/>
<path class="st1" d="M166.7,354h2.1c0.7,0,1.2,0.5,1.2,1.2v0c0,0.7-0.5,1.2-1.2,1.2h-2.1c-0.7,0-1.2-0.5-1.2-1.2v0
	C165.5,354.5,166.1,354,166.7,354z"/>
<path class="st1" d="M129.8,360h2.1c0.7,0,1.2,0.5,1.2,1.2v0c0,0.7-0.5,1.2-1.2,1.2h-2.1c-0.7,0-1.2-0.5-1.2-1.2v0
	C128.6,360.6,129.1,360,129.8,360z"/>
<path class="st1" d="M173.2,354h2.1c0.7,0,1.2,0.5,1.2,1.2v0c0,0.7-0.5,1.2-1.2,1.2h-2.1c-0.7,0-1.2-0.5-1.2-1.2v0
	C172.1,354.5,172.6,354,173.2,354z"/>
<rect x="114.4" y="479.8" class="st1" width="82.2" height="12.5"/>
<rect x="112.3" y="510.3" class="st1" width="100.4" height="26.3"/>
<path class="st4" d="M111,509.2v27.3l101.9-0.2l-0.6-27.1L111,509.2z M113.6,512.7h15.5l-15.1,20h-0.4V512.7z M138.5,512.7h9.9
	l-14.9,20h-10L138.5,512.7z M157.8,512.7h9.9l-14.9,20H143L157.8,512.7z M177.2,512.7h9.9l-15.1,20h-9.8L177.2,512.7z M196.5,512.7
	h9.9l-14.9,20h-9.8L196.5,512.7z M209.3,532.7H201l8.3-11.1V532.7z"/>
<path class="st1" d="M67.8,519.4c-1.5,3.1-2.6,7-0.8,10c0.9,1.2,1.9,2.3,3,3.3c4,4.9,1.9,12.2-1.2,17.7c-1,1.4-1.6,3-1.8,4.6
	c-0.1,2.6,1.8,4.8,3.3,6.9c1.6,2.1,2.7,4.7,1.7,6.9c-12-1.4-23.7-4.2-35.1-8.3c-1.6-0.6-3.2-1.2-4.8-1.9c-0.3-3.6,0.8-7.4,2.3-10.9
	c1.6-3.8,4.1-7.7,4.8-11.8c0.6-3.8-0.1-7.3,1.1-11.1c2.2-7.5,7.8-13.5,15.2-16.2c2.1-0.7,4.4-1.2,6-2.8c1.1-1.2,1.9-2.5,2.5-4
	c2.8-6.1,5.6-12.3,8.4-18.5c1.3-2.8,3-6,6.1-6.5c2.4-0.4,4.8,1.2,5.9,3.3c1.1,2.2,1.4,4.6,1.1,7C84,499.4,73.4,508.3,67.8,519.4z"/>
<linearGradient id="SVGID_26_" gradientUnits="userSpaceOnUse" x1="72.044" y1="224.9231" x2="11.874" y2="197.3831" gradientTransform="matrix(1 0 0 -1 -1.64 749.77)">
	<stop  offset="0" style="stop-color:#010101;stop-opacity:0"/>
	<stop  offset="0.95" style="stop-color:#010101"/>
</linearGradient>
<path class="st30" d="M67.8,519.4c-1.5,3.1-2.6,7-0.8,10c0.9,1.2,1.9,2.3,3,3.3c4,4.9,1.9,12.2-1.2,17.7c-1,1.4-1.6,3-1.8,4.6
	c-0.1,2.6,1.8,4.8,3.3,6.9c1.6,2.1,2.7,4.7,1.7,6.9c-12-1.4-23.7-4.2-35.1-8.3c-1.6-0.6-3.2-1.2-4.8-1.9c-0.3-3.6,0.8-7.4,2.3-10.9
	c1.6-3.8,4.1-7.7,4.8-11.8c0.6-3.8-0.1-7.3,1.1-11.1c2.2-7.5,7.8-13.5,15.2-16.2c2.1-0.7,4.4-1.2,6-2.8c1.1-1.2,1.9-2.5,2.5-4
	c2.8-6.1,5.6-12.3,8.4-18.5c1.3-2.8,3-6,6.1-6.5c2.4-0.4,4.8,1.2,5.9,3.3c1.1,2.2,1.4,4.6,1.1,7C84,499.4,73.4,508.3,67.8,519.4z"/>
<path class="st1" d="M51.8,555.3c-0.4,3.4-2.4,6.5-5.4,8.2c-3.2-0.9-6.4-2-9.5-3.1c-1.6-0.6-3.2-1.2-4.8-1.9
	c-9-3.8-17.5-8.6-25.4-14.3c-0.5-1.5-0.9-3.1-1.2-4.7c-0.5-3.2,0.9-6.5,3.6-8.3c1.3-0.6,2.6-1.4,3.9-2.2c2.7-2.2,2.7-6.4,1.4-9.5
	c-1.3-3.2-3.8-5.8-5.6-8.7s-3-6.6-1.6-9.8c0.9-2,2.8-3.5,4-5.4c2.2-3.6,1.5-8.2,0.7-12.4c-1.1-5.6-2.2-11.3-3.3-16.9
	c-0.7-3.7-1.2-8,1.5-10.6c3.7-3.5,9.8-0.7,13.4,2.8c4.4,4,7.6,9.1,9.3,14.7c3.4,12.3-2.6,26.2,2.3,38c3.2,8,10.8,13.5,14.5,21.2
	C52.9,539.4,52.9,547.7,51.8,555.3z"/>
</svg>
